<svg xmlns="http://www.w3.org/2000/svg" width="15.429" height="18" viewBox="0 0 15.429 18"><g transform="translate(-513.5 -152.404)"><path d="M518.092,171.471a2.5,2.5,0,0,1-2.513-2.423c-.268-2.44-.717-8.209-.725-8.267a.677.677,0,0,1,.164-.478.607.607,0,0,1,.448-.2h11.889a.62.62,0,0,1,.448.2.637.637,0,0,1,.155.478c0,.058-.457,5.836-.717,8.267a2.5,2.5,0,0,1-2.571,2.423c-1.107.022-2.192.031-3.262.031C520.277,171.5,519.168,171.5,518.092,171.471Z" transform="translate(-0.193 -1.1)" fill="currentColor"/><path d="M514.112,156.768a.626.626,0,0,1-.612-.629v-.326a.62.62,0,0,1,.612-.629h2.5a1.1,1.1,0,0,0,1.064-.87l.13-.585a1.7,1.7,0,0,1,1.639-1.325h3.539a1.7,1.7,0,0,1,1.629,1.286l.14.626a1.1,1.1,0,0,0,1.064.871h2.5a.62.62,0,0,1,.614.626h0v.326a.626.626,0,0,1-.611.629Z" fill="currentColor"/></g></svg>