<svg xmlns="http://www.w3.org/2000/svg" width="24.38" height="24.38" viewBox="0 0 24.38 24.38"><g transform="translate(0.1 0.1)"><path d="M212.08,411.768c-4.825,0-7.319-.083-8.8-1.7-1.527-1.669-1.527-4.583-1.527-10.392,0-11.637.452-12.089,12.089-12.089s12.092.452,12.092,12.089-.452,12.09-12.092,12.09H212.08Zm1.762-22.236c-5.115,0-7.935,0-9.039,1.1s-1.1,3.924-1.1,9.039c0,5.138,0,7.968,1.016,9.079.983,1.073,3.553,1.064,8.186,1.068h.942c5.118,0,7.937,0,9.042-1.1s1.1-3.924,1.1-9.041,0-7.935-1.1-9.039S218.96,389.533,213.842,389.533Z" transform="translate(-201.753 -387.588)" fill="currentColor" stroke="currentColor" stroke-width="0.2"/><path d="M211.955,403.657a5.866,5.866,0,1,1,5.867-5.867A5.873,5.873,0,0,1,211.955,403.657Zm0-9.983a4.116,4.116,0,1,0,4.117,4.116A4.12,4.12,0,0,0,211.955,393.674Z" transform="translate(-199.866 -385.701)" fill="currentColor" stroke="currentColor" stroke-width="0.2"/><circle cx="1.115" cy="1.115" r="1.115" transform="translate(17.956 4.292)" fill="currentColor"/></g></svg>