<svg xmlns="http://www.w3.org/2000/svg" width="17" height="20" viewBox="0 0 17 20"><g transform="translate(-215.5 -355.904)"><g transform="translate(215.5 355.904)"><g transform="translate(-215.5 -355.904)" fill="none"><path d="M224,375.9a1.356,1.356,0,0,1-.734-.247,21.506,21.506,0,0,1-5.54-5.141,10.381,10.381,0,0,1-2.226-6.294,8.166,8.166,0,0,1,2.5-5.884,8.528,8.528,0,0,1,5.993-2.434,8.423,8.423,0,0,1,8.507,8.318,10.39,10.39,0,0,1-2.23,6.294,21.9,21.9,0,0,1-5.541,5.141A1.319,1.319,0,0,1,224,375.9Zm-.009-15.407A3.994,3.994,0,0,0,220,364.491h0a3.87,3.87,0,0,0,1.171,2.787,3.987,3.987,0,1,0,2.82-6.781Z" stroke="none"/><path d="M 223.9968109130859 374.2236938476563 C 225.9212646484375 372.9554443359375 227.6024475097656 371.383056640625 228.9953460693359 369.5482788085938 L 229.0135345458984 369.5247802734375 C 230.1994323730469 368.0214233398438 230.8687744140625 366.1388549804688 230.8994903564453 364.2214050292969 C 230.8717346191406 362.4217834472656 230.1517486572266 360.7353210449219 228.8707427978516 359.4707336425781 C 227.5689697265625 358.1856384277344 225.8385772705078 357.4855651855469 224.0088653564453 357.5039367675781 L 223.9981384277344 357.5040588378906 L 223.9662628173828 357.5039672851563 C 222.1433715820313 357.5039672851563 220.4219512939453 358.2062377929688 219.119140625 359.4814147949219 L 219.1102142333984 359.4900817871094 C 217.8341522216797 360.7198181152344 217.1017913818359 362.4401245117188 217.1000213623047 364.2115173339844 C 217.1265716552734 366.1311950683594 217.7949981689453 368.0179443359375 218.9827728271484 369.5255432128906 L 219.0033111572266 369.5521850585938 C 220.3921203613281 371.3933715820313 222.071533203125 372.9643859863281 223.9968109130859 374.2236938476563 M 223.9998321533203 375.9035949707031 C 223.7368316650391 375.8946228027344 223.4818420410156 375.80859375 223.2658538818359 375.6566467285156 C 221.1298980712891 374.2836608886719 219.2549285888672 372.5426940917969 217.7259674072266 370.5157165527344 C 216.3110046386719 368.7197570800781 215.5290222167969 366.5078125 215.5000152587891 364.2218322753906 C 215.4989929199219 362.0019226074219 216.4019775390625 359.8779296875 217.9999694824219 358.3379821777344 C 219.6009216308594 356.77099609375 221.7532196044922 355.8959350585938 223.9928131103516 355.9040222167969 C 224.0217132568359 355.9037170410156 224.0509490966797 355.9035949707031 224.0797882080078 355.9035949707031 C 228.6843109130859 355.9035949707031 232.4420013427734 359.6068420410156 232.4996490478516 364.2218322753906 C 232.4686431884766 366.5078125 231.6856689453125 368.7207641601563 230.2697143554688 370.5157165527344 C 228.7347259521484 372.5376892089844 226.8597717285156 374.2766418457031 224.7288208007813 375.6566467285156 C 224.5158233642578 375.8096008300781 224.2618103027344 375.8955993652344 223.9998321533203 375.9035949707031 Z M 223.9880828857422 360.4969177246094 C 221.7834167480469 360.4984436035156 219.9969177246094 362.2858276367188 219.9969177246094 364.4908447265625 C 219.992919921875 365.5398254394531 220.4159088134766 366.5457763671875 221.1678924560547 367.2778015136719 C 222.7618560791016 368.8277587890625 225.3118286132813 368.7917785644531 226.8617553710938 367.1977844238281 C 227.5677490234375 366.4708251953125 227.9747467041016 365.5038146972656 227.9997406005859 364.4908447265625 C 227.9807586669922 362.2860412597656 226.1928405761719 360.5061645507813 223.9880828857422 360.4969177246094 C 223.9890289306641 360.4969177246094 223.9898834228516 360.4969177246094 223.9908294677734 360.4969177246094 L 223.9878387451172 360.4969177246094 C 223.9879760742188 360.4969177246094 223.9879455566406 360.4969177246094 223.9880828857422 360.4969177246094 Z" stroke="none" fill="currentColor"/></g></g></g></svg>