<svg xmlns="http://www.w3.org/2000/svg" width="14.986" height="25" viewBox="0 0 14.986 25"><g transform="translate(-96.237)"><path d="M124.067,12.988a6.494,6.494,0,1,0-6.494-6.494A6.494,6.494,0,0,0,124.067,12.988Zm0-9.991a3.5,3.5,0,1,1-3.5,3.5A3.5,3.5,0,0,1,124.067,3Z" transform="translate(-20.337)" fill="currentColor"/><path d="M110.091,262.612a2.516,2.516,0,0,0,1.132-2.1,1.812,1.812,0,0,0-1.016-1.653,1.9,1.9,0,0,0-2,.188,7.6,7.6,0,0,1-8.957,0,1.908,1.908,0,0,0-2-.188,1.814,1.814,0,0,0-1.017,1.652,2.519,2.519,0,0,0,1.132,2.1,11.534,11.534,0,0,0,2.927,1.4q.264.082.545.152l-3.019,2.952a2,2,0,0,0,2.783,2.868l.049-.049,3.077-3.185,3.083,3.191a2,2,0,0,0,2.87-2.78l-.049-.049-3.014-2.949q.281-.072.546-.153A11.49,11.49,0,0,0,110.091,262.612Z" transform="translate(0 -245.547)" fill="currentColor"/></g></svg>