<svg xmlns="http://www.w3.org/2000/svg" width="17.998" height="18" viewBox="0 0 17.998 18"><g transform="translate(-838 -403.904)"><g transform="translate(838 403.904)"><path d="M852.549,415.045a2.052,2.052,0,0,0-1.506.4c-.434.253-1.26.921-1.731.75a10.738,10.738,0,0,1-5.681-5.543c-.174-.482.492-1.312.742-1.751a2.1,2.1,0,0,0,.392-1.516,12.326,12.326,0,0,0-2.1-2.922,1.722,1.722,0,0,0-1.051-.553c-1.351-.057-2.859,1.746-3.125,2.177-.662.92-.659,2.143.012,3.628,1.62,3.985,7.727,10,11.727,11.676a4.826,4.826,0,0,0,2.019.518,2.628,2.628,0,0,0,1.576-.494c.343-.2,2.219-1.781,2.17-3.169a1.747,1.747,0,0,0-.547-1.049,12.423,12.423,0,0,0-2.9-2.146" transform="translate(-838 -403.904)" fill="currentColor"/></g></g></svg>