<svg xmlns="http://www.w3.org/2000/svg" width="19.499" height="24" viewBox="0 0 19.499 24"><path d="M58.076,0C51.5,0,48,4.216,48,8.812c0,2.131,1.191,4.79,3.1,5.633.544.245.472-.054.94-1.844a.425.425,0,0,0-.1-.417C49.21,9.031,51.4,2.549,57.687,2.549c9.093,0,7.394,12.582,1.582,12.582A2.146,2.146,0,0,1,57.008,12.5c.428-1.733,1.266-3.6,1.266-4.845,0-3.148-4.69-2.681-4.69,1.49A5.046,5.046,0,0,0,54.04,11.3s-1.509,6.1-1.789,7.235a16.177,16.177,0,0,0,.111,5.318.158.158,0,0,0,.288.073,18.858,18.858,0,0,0,2.484-4.678c.186-.685.949-3.465.949-3.465a4.146,4.146,0,0,0,3.5,1.668c4.6,0,7.918-4.04,7.918-9.053C67.483,3.6,63.37,0,58.076,0Z" transform="translate(-48)" fill="currentColor"/></svg>