<svg xmlns="http://www.w3.org/2000/svg" width="20.188" height="18" viewBox="0 0 20.188 18"><g transform="translate(0 0)"><path d="M502.524-264.681a.894.894,0,0,0-.9-.155l-18.378,6.891a.9.9,0,0,0-.588.847.9.9,0,0,0,.588.846l5.269,1.976a.182.182,0,0,1,.11.12l1.345,4.7a.9.9,0,0,0,.705.641.9.9,0,0,0,.887-.345l1.576-2.1a.181.181,0,0,1,.126-.071.185.185,0,0,1,.138.042l4.868,4.173a.9.9,0,0,0,.586.22.889.889,0,0,0,.3-.053.894.894,0,0,0,.589-.683l3.084-16.19A.893.893,0,0,0,502.524-264.681Zm-11.86,15.032-1.345-4.706a.563.563,0,0,0-.032-.09.713.713,0,0,1,.3-.855l12.12-8.642-10.125,10.125-.819,4.281A.166.166,0,0,1,490.665-249.649Z" transform="translate(-482.659 264.895)" fill="currentColor"/></g></svg>