<svg xmlns="http://www.w3.org/2000/svg" width="21.398" height="24.18" viewBox="0 0 21.398 24.18"><g transform="translate(0 0)"><path d="M1059.688,396.787a9.491,9.491,0,0,0,5.539,1.772v-3.973a5.627,5.627,0,0,1-1.163-.121v3.128a9.505,9.505,0,0,1-5.54-1.772v8.108a7.35,7.35,0,0,1-11.437,6.1,7.348,7.348,0,0,0,12.6-5.135v-8.108Zm1.435-4.008a5.538,5.538,0,0,1-1.435-3.242v-.51h-1.1a5.561,5.561,0,0,0,2.538,3.752Zm-11.469,14.138a3.361,3.361,0,0,1,3.694-5.235V397.62a7.342,7.342,0,0,0-1.162-.067v3.161a3.414,3.414,0,0,0-1.019-.156,3.359,3.359,0,0,0-1.512,6.36Z" transform="translate(-1043.83 -388.059)" fill="currentColor" opacity="0.498"/><path d="M1059.117,395.82a9.505,9.505,0,0,0,5.539,1.772v-3.128a8.768,8.768,0,0,1-5.478-5.438h-2.9v15.868a4.746,4.746,0,1,1-3.5-4.181v-3.161a6.878,6.878,0,1,0,6.339,6.375Z" transform="translate(-1044.423 -388.059)" fill="currentColor"/><path d="M1064.986,394.739v-.845a5.546,5.546,0,0,1-2.94-.84A5.558,5.558,0,0,0,1064.986,394.739Zm-5.478-5.438c-.026-.152-.047-.3-.061-.456v-.512h-4V404.2a3.362,3.362,0,0,1-4.873,2.989,3.362,3.362,0,0,0,6.036-2.023V389.3Zm-6.4,8.526v-.9a7.344,7.344,0,0,0-5.1,13.376,7.343,7.343,0,0,1,5.1-12.477Z" transform="translate(-1044.752 -388.333)" fill="currentColor"/></g></svg>