<svg xmlns="http://www.w3.org/2000/svg" width="23.857" height="13.61" viewBox="0 0 23.857 13.61"><path d="M29.612,52.409h1.426a1.2,1.2,0,0,0,.651-.284,1.044,1.044,0,0,0,.2-.626s-.028-1.913.86-2.2,2,1.849,3.191,2.667a2.258,2.258,0,0,0,1.586.483l3.186-.044s1.667-.1.876-1.413a10.647,10.647,0,0,0-2.369-2.741c-2-1.854-1.73-1.554.676-4.762,1.466-1.953,2.051-3.146,1.868-3.657-.175-.486-1.252-.358-1.252-.358L36.92,39.5a.814.814,0,0,0-.463.082,1,1,0,0,0-.317.385,20.771,20.771,0,0,1-1.325,2.8c-1.6,2.712-2.236,2.856-2.5,2.687-.607-.393-.456-1.577-.456-2.418,0-2.629.4-3.725-.776-4.008a6.125,6.125,0,0,0-1.674-.166,7.732,7.732,0,0,0-2.977.3c-.408.2-.723.645-.531.671a1.61,1.61,0,0,1,1.059.532,3.461,3.461,0,0,1,.355,1.623s.211,3.094-.493,3.479c-.484.264-1.147-.275-2.571-2.735a22.875,22.875,0,0,1-1.281-2.654,1.066,1.066,0,0,0-.3-.4,1.487,1.487,0,0,0-.551-.223l-3.409.022s-.512.014-.7.237c-.167.2-.013.607-.013.607s2.669,6.244,5.691,9.39a8.185,8.185,0,0,0,5.917,2.7Z" transform="translate(-17.94 -38.855)" fill="currentColor"/></svg>