<svg xmlns="http://www.w3.org/2000/svg" width="16.615" height="18" viewBox="0 0 16.615 18"><path d="M321.635-267.016a8.346,8.346,0,0,0-8.308,8.366,8.324,8.324,0,0,0,3.323,6.683l-.486,2.951,2.9-1.685a8.171,8.171,0,0,0,2.572.416,8.346,8.346,0,0,0,8.308-8.365,8.346,8.346,0,0,0-8.308-8.366Z" transform="translate(-313.327 267.016)" fill="currentColor"/><g transform="translate(4.26 4.437)"><path d="M325.613-255.425v-.687a.324.324,0,0,0-.313-.321,5.066,5.066,0,0,1-1.907-.46.322.322,0,0,0-.361.064l-.562.56a.319.319,0,0,1-.373.06,6.679,6.679,0,0,1-2.77-2.724.323.323,0,0,1,.059-.381l.595-.591a.326.326,0,0,0,.065-.361,5.463,5.463,0,0,1-.465-1.989.324.324,0,0,0-.32-.314h-1.419a.325.325,0,0,0-.324.325v.162a8.006,8.006,0,0,0,7.609,7.634h.162a.325.325,0,0,0,.324-.325Z" transform="translate(-317.518 262.571)" fill="#ffefe0"/></g></svg>