<svg width="43" height="43" viewBox="0 0 43 43" fill="none" xmlns="http://www.w3.org/2000/svg">
<path d="M19.768 4.99999C20.5378 3.66666 22.4622 3.66666 23.232 5L36.6554 28.25C37.4252 29.5833 36.463 31.25 34.9234 31.25H8.0766C6.537 31.25 5.57475 29.5833 6.34455 28.25L19.768 4.99999Z" fill="white" stroke="currentColor" stroke-width="2"/>
<path d="M20.589 21.5912L20.133 12.6992H22.945L22.47 21.5912H20.589ZM21.539 26.1322C21.0957 26.1322 20.7283 25.9866 20.437 25.6952C20.1457 25.4039 20 25.0556 20 24.6502C20 24.2449 20.1457 23.9029 20.437 23.6242C20.7283 23.3329 21.0957 23.1872 21.539 23.1872C21.9823 23.1872 22.3433 23.3329 22.622 23.6242C22.9007 23.9029 23.04 24.2449 23.04 24.6502C23.04 25.0556 22.9007 25.4039 22.622 25.6952C22.3433 25.9866 21.9823 26.1322 21.539 26.1322Z" fill="black"/>
</svg>
