<svg xmlns="http://www.w3.org/2000/svg" width="575.787" height="630" viewBox="0 0 575.787 630"><path d="M648.184,653.261a281.907,281.907,0,0,1-140.265,46.49l9.143-12.171a286.3,286.3,0,0,1,98.053-82.531,279.7,279.7,0,0,1,112.25-30.391,284.229,284.229,0,0,1-79.181,78.6m-312.615,0a284.354,284.354,0,0,1-79.181-78.6,279.7,279.7,0,0,1,112.25,30.391,286.2,286.2,0,0,1,98.053,82.531l9.143,12.171a281.9,281.9,0,0,1-140.265-46.49M412.8,513.677l-3.71-1.325c-43.14-16.241-63.763-46.073-61.312-88.73L358.7,290.172q14.239,24.064,36.675,48.44c63.223,68.6,167.04,126.21,225.039,142.035q-15.361,20.188-45.572,31.631l-3.89,1.4a142.109,142.109,0,0,0-68.107,51.544A143.718,143.718,0,0,0,491.876,583.3a143.724,143.724,0,0,0-10.97-18.077A142.108,142.108,0,0,0,412.8,513.677m93.879-301.74H476.127v41.606c-24.457-8.546-39.373-25.479-39.373-41.606,0-9.361,4.306-16.563,13.175-22.024,9.928-6.1,24.826-9.474,41.947-9.474,34.158,0,54.364,8.726,55.122,15.749.483,4.42-1.145,7.581-7.042,10.5-4.837,2.4-14.547,5.253-33.278,5.253m-14.8-78.745c66.318,0,122.755,30.362,125.869,67.7.757,9.19-2.688,18.011-10.241,26.2-17.964,19.5-55.8,32.1-96.378,32.1-1.174,0-2.347-.019-3.5-.047v-15.7c19.752-.095,34.905-2.877,46.31-8.528,15.844-7.846,24.57-21.6,24.57-38.729,0-29.141-33.192-47.247-86.629-47.247-23.2,0-43.414,4.893-58.453,14.15-18.172,11.178-28.176,28.526-28.176,48.847.009,20.746,11.329,41.124,31.082,55.926,19.648,14.717,46.216,22.829,74.8,22.829,44.446,0,85.74-12.948,111.161-34.3l13.686,167.229a99.362,99.362,0,0,1-2.12,28.006c-18.3-4.24-48.733-16-85.806-36.391-51.288-28.214-97.286-63.006-129.5-97.977-37.82-41.038-55.5-80.174-52.538-116.31H366c3.067-37.357,59.532-67.757,125.879-67.757m252,409.5A314.219,314.219,0,0,0,507.635,649.362c.142-47.938,28.592-89.2,72.7-105.577l1.126-.4c58.841-20.548,89.365-63.8,85.957-121.79l-18.267-223.2c-2.243-27.485-20.538-52.566-51.5-70.615-28.858-16.828-66.422-26.084-105.776-26.084s-76.919,9.256-105.767,26.084c-30.968,18.049-49.263,43.13-51.506,70.615L316.365,421.237l-.019.36c-3.417,57.989,27.106,101.242,85.948,121.79l1.088.379c44.124,16.364,72.6,57.649,72.735,105.6a315.4,315.4,0,0,0-272.135-104.64C253.038,654.889,363.5,731.694,491.876,731.694s238.848-76.8,287.893-186.973a316.277,316.277,0,0,0-35.89-2.026" transform="translate(-203.983 -101.694)" fill="#fffbf5"/></svg>