<svg xmlns="http://www.w3.org/2000/svg" width="203.934" height="66.5" viewBox="0 0 203.934 66.5"><g transform="translate(-888 -70)"><g transform="translate(971.126 81.083)"><path d="M-424.015,31.039l-6.426,11.826-6.386-11.826h-5.323l9.343,16v11.59h4.77V47l9.343-15.966Z" transform="translate(442.149 -30.526)" fill="#4a1b00"/><path d="M-401.084,48.875a9.236,9.236,0,0,1-1.951,3.114,8.844,8.844,0,0,1-2.976,2.05,9.5,9.5,0,0,1-3.764.73,9.506,9.506,0,0,1-3.766-.73,8.844,8.844,0,0,1-2.976-2.05,9.237,9.237,0,0,1-1.951-3.114,10.84,10.84,0,0,1-.69-3.921,10.847,10.847,0,0,1,.69-3.923,9.264,9.264,0,0,1,1.951-3.114,8.883,8.883,0,0,1,2.976-2.05,9.529,9.529,0,0,1,3.766-.729,9.631,9.631,0,0,1,3.8.729A8.882,8.882,0,0,1-403,37.917a9.052,9.052,0,0,1,1.931,3.114,11.136,11.136,0,0,1,.67,3.923,10.839,10.839,0,0,1-.69,3.921m1.577-14.151a13.942,13.942,0,0,0-4.573-2.976,14.988,14.988,0,0,0-5.7-1.064,14.845,14.845,0,0,0-5.677,1.064,14.008,14.008,0,0,0-4.553,2.976,13.253,13.253,0,0,0-3.016,4.533,15,15,0,0,0-1.064,5.7,14.986,14.986,0,0,0,1.064,5.7,13.791,13.791,0,0,0,3,4.573,13.742,13.742,0,0,0,4.534,3.036,14.727,14.727,0,0,0,5.716,1.084,14.882,14.882,0,0,0,5.736-1.084,13.7,13.7,0,0,0,4.553-3.036,13.792,13.792,0,0,0,3-4.573,14.989,14.989,0,0,0,1.064-5.7,15,15,0,0,0-1.064-5.7,13.233,13.233,0,0,0-3.016-4.533" transform="translate(448.147 -30.644)" fill="#4a1b00"/><path d="M-382.712,49.369a6.831,6.831,0,0,1-.611,2.976,4.508,4.508,0,0,1-1.813,1.991,5.773,5.773,0,0,1-2.976.71,5.775,5.775,0,0,1-2.977-.71,4.5,4.5,0,0,1-1.813-1.991,6.832,6.832,0,0,1-.611-2.976V31.039h-4.651V49.566a10.881,10.881,0,0,0,.73,4.1,8.5,8.5,0,0,0,2.068,3.074,9.107,9.107,0,0,0,3.193,1.931,11.842,11.842,0,0,0,4.061.67,11.844,11.844,0,0,0,4.06-.67,9.107,9.107,0,0,0,3.193-1.931,8.513,8.513,0,0,0,2.07-3.074,10.908,10.908,0,0,0,.729-4.1V31.039h-4.651Z" transform="translate(456.752 -30.526)" fill="#4a1b00"/><path d="M-364.97,54.681a8.4,8.4,0,0,1-3.509.769,6.216,6.216,0,0,1-2.621-.533,4.206,4.206,0,0,1-1.813-1.517,3.991,3.991,0,0,1-.651-2.247,3.838,3.838,0,0,1,.691-2.326,7.015,7.015,0,0,1,1.773-1.676,20.781,20.781,0,0,1,2.091-1.223l6.492,7.3a13.72,13.72,0,0,1-2.454,1.451m-5.281-19a2.636,2.636,0,0,1,1.064-1.044,3.441,3.441,0,0,1,1.694-.394,3.221,3.221,0,0,1,1.656.394,2.8,2.8,0,0,1,1.044,1.064,3.1,3.1,0,0,1,.376,1.537,3.157,3.157,0,0,1-.553,1.7,7.507,7.507,0,0,1-1.577,1.714,12.442,12.442,0,0,1-1.344.956c-.34-.376-.67-.739-.982-1.074a9.53,9.53,0,0,1-1.26-1.656,3.275,3.275,0,0,1-.474-1.676,3.12,3.12,0,0,1,.356-1.518m14.348,16.38q1.656-1.97,3.114-3.981l-3.074-2.169a44.212,44.212,0,0,1-2.76,3.607c-.365.429-.738.834-1.116,1.228l-5.966-6.693q1.011-.667,1.84-1.295A13.477,13.477,0,0,0-361.935,41a6.816,6.816,0,0,0,1.2-1.873A5.444,5.444,0,0,0-360.319,37a6.1,6.1,0,0,0-.847-3.114,6.312,6.312,0,0,0-2.424-2.346,7.774,7.774,0,0,0-3.863-.887,8.584,8.584,0,0,0-3.923.847,6.5,6.5,0,0,0-2.6,2.287,5.874,5.874,0,0,0-.927,3.253,5.346,5.346,0,0,0,.691,2.68,11.374,11.374,0,0,0,1.634,2.227c.462.49.875.947,1.267,1.388-.679.3-1.375.65-2.094,1.056a12.6,12.6,0,0,0-2.286,1.656,7.83,7.83,0,0,0-1.734,2.286,6.841,6.841,0,0,0-.671,3.134,6.692,6.692,0,0,0,1.281,4.12,8.448,8.448,0,0,0,3.39,2.66,10.89,10.89,0,0,0,4.514.947,13.135,13.135,0,0,0,5.084-.966,17.045,17.045,0,0,0,3.8-2.2l2.432,2.733h5.006l-4.657-5.223c.464-.477.915-.966,1.345-1.479" transform="translate(463.415 -30.654)" fill="#4a1b00"/><rect width="4.691" height="27.594" transform="translate(116.116 0.512)" fill="#4a1b00"/><path d="M-433.076,59.12a3.533,3.533,0,0,0-1.293.23A3.061,3.061,0,0,0-435.4,60a2.943,2.943,0,0,0-.682,1,3.286,3.286,0,0,0-.244,1.289,3.285,3.285,0,0,0,.244,1.289,2.914,2.914,0,0,0,.682.994,3.093,3.093,0,0,0,1.028.647,3.533,3.533,0,0,0,1.293.229,3.159,3.159,0,0,0,1.107-.165,2.869,2.869,0,0,0,.8-.46V63.417a2.375,2.375,0,0,1-.469.421,2.322,2.322,0,0,1-.613.3,2.455,2.455,0,0,1-.777.113,2.038,2.038,0,0,1-.738-.135,1.9,1.9,0,0,1-.621-.39,1.818,1.818,0,0,1-.429-.621,2.039,2.039,0,0,1-.157-.817,2.039,2.039,0,0,1,.157-.817,1.831,1.831,0,0,1,.429-.621,1.9,1.9,0,0,1,.621-.39,2.037,2.037,0,0,1,.738-.135,2.58,2.58,0,0,1,.777.108,2.146,2.146,0,0,1,.613.305,2.821,2.821,0,0,1,.469.421V59.754a2.59,2.59,0,0,0-.8-.473,3.23,3.23,0,0,0-1.107-.161" transform="translate(444.083 -21.203)" fill="#4a1b00"/><path d="M-426.8,61.483h-2.831V59.218h-1.249v6.077h1.249V62.629h2.831v2.665h1.251V59.218H-426.8Z" transform="translate(445.89 -21.171)" fill="#4a1b00"/><path d="M-420.547,63.087a1.838,1.838,0,0,1-.39.629,1.768,1.768,0,0,1-.6.413,1.9,1.9,0,0,1-.755.148,1.953,1.953,0,0,1-.773-.148,1.763,1.763,0,0,1-.6-.413,1.864,1.864,0,0,1-.392-.633,2.258,2.258,0,0,1-.138-.8,2.236,2.236,0,0,1,.138-.8,1.878,1.878,0,0,1,.392-.63,1.782,1.782,0,0,1,.6-.413,1.977,1.977,0,0,1,.773-.147,1.971,1.971,0,0,1,.778.147,1.807,1.807,0,0,1,.594.413,1.754,1.754,0,0,1,.382.634,2.375,2.375,0,0,1,.131.794,2.214,2.214,0,0,1-.14.8m.547-3.069a3.266,3.266,0,0,0-1.024-.659,3.319,3.319,0,0,0-1.276-.24,3.3,3.3,0,0,0-1.268.24,3.2,3.2,0,0,0-1.019.659,2.971,2.971,0,0,0-.682,1,3.244,3.244,0,0,0-.244,1.272,3.312,3.312,0,0,0,.24,1.276,3.058,3.058,0,0,0,.667,1.012,3.074,3.074,0,0,0,1.016.669,3.42,3.42,0,0,0,1.3.238,3.38,3.38,0,0,0,1.281-.238,3.1,3.1,0,0,0,1.019-.669,2.956,2.956,0,0,0,.669-1.016,3.371,3.371,0,0,0,.234-1.272,3.337,3.337,0,0,0-.234-1.272,2.828,2.828,0,0,0-.677-1" transform="translate(447.673 -21.203)" fill="#4a1b00"/><path d="M-416.327,59.12a3.533,3.533,0,0,0-1.293.23,3.063,3.063,0,0,0-1.028.651,2.945,2.945,0,0,0-.682,1,3.287,3.287,0,0,0-.244,1.289,3.287,3.287,0,0,0,.244,1.289,2.916,2.916,0,0,0,.682.994,3.1,3.1,0,0,0,1.028.647,3.533,3.533,0,0,0,1.293.229,3.164,3.164,0,0,0,1.107-.165,2.871,2.871,0,0,0,.8-.46V63.417a2.376,2.376,0,0,1-.469.421,2.322,2.322,0,0,1-.613.3,2.455,2.455,0,0,1-.777.113,2.037,2.037,0,0,1-.738-.135,1.9,1.9,0,0,1-.621-.39,1.818,1.818,0,0,1-.429-.621,2.039,2.039,0,0,1-.157-.817,2.039,2.039,0,0,1,.157-.817,1.831,1.831,0,0,1,.429-.621,1.9,1.9,0,0,1,.621-.39,2.037,2.037,0,0,1,.738-.135,2.58,2.58,0,0,1,.777.108,2.146,2.146,0,0,1,.613.305,2.823,2.823,0,0,1,.469.421V59.754a2.591,2.591,0,0,0-.8-.473,3.235,3.235,0,0,0-1.107-.161" transform="translate(449.644 -21.203)" fill="#4a1b00"/><path d="M-409.427,63.087a1.839,1.839,0,0,1-.39.629,1.77,1.77,0,0,1-.6.413,1.906,1.906,0,0,1-.755.148,1.953,1.953,0,0,1-.772-.148,1.751,1.751,0,0,1-.6-.413,1.845,1.845,0,0,1-.392-.633,2.259,2.259,0,0,1-.139-.8,2.237,2.237,0,0,1,.139-.8,1.859,1.859,0,0,1,.392-.63,1.769,1.769,0,0,1,.6-.413,1.976,1.976,0,0,1,.772-.147,1.971,1.971,0,0,1,.778.147,1.805,1.805,0,0,1,.594.413,1.751,1.751,0,0,1,.382.634,2.374,2.374,0,0,1,.131.794,2.214,2.214,0,0,1-.14.8m.547-3.069a3.266,3.266,0,0,0-1.024-.659,3.319,3.319,0,0,0-1.276-.24,3.3,3.3,0,0,0-1.268.24,3.22,3.22,0,0,0-1.02.659,2.964,2.964,0,0,0-.68,1,3.24,3.24,0,0,0-.244,1.272,3.314,3.314,0,0,0,.24,1.276,3.06,3.06,0,0,0,.667,1.012,3.061,3.061,0,0,0,1.016.669,3.42,3.42,0,0,0,1.3.238,3.38,3.38,0,0,0,1.281-.238,3.1,3.1,0,0,0,1.019-.669,2.955,2.955,0,0,0,.669-1.016,3.372,3.372,0,0,0,.234-1.272,3.338,3.338,0,0,0-.234-1.272,2.827,2.827,0,0,0-.677-1" transform="translate(451.364 -21.203)" fill="#4a1b00"/><path d="M-406.945,59.218h-1.249v6.077h3.68v-1.1h-2.431Z" transform="translate(453.422 -21.171)" fill="#4a1b00"/><path d="M-400.712,63.024h-1.507l.75-1.736Zm-3.839,2.362h1.415l.623-1.363h2.086l.625,1.363h1.424l-3.09-6.442Z" transform="translate(454.632 -21.261)" fill="#4a1b00"/><path d="M-399.683,60.346h1.641v4.948h1.241V60.346h1.641V59.218h-4.524Z" transform="translate(456.248 -21.17)" fill="#4a1b00"/><path d="M-394.308,59.218h-.8v6.077h3.872V64.235h-2.657V62.586h2.484V61.545h-2.484V60.276h2.657V59.218h-3.073Z" transform="translate(457.767 -21.171)" fill="#4a1b00"/><path d="M-385.051,63.914a.811.811,0,0,1-.39.292A1.632,1.632,0,0,1-386,64.3h-.8V62.551h.8a1.772,1.772,0,0,1,.438.052.994.994,0,0,1,.348.157.755.755,0,0,1,.225.26.814.814,0,0,1,.083.382.854.854,0,0,1-.144.512m-1.08-3.7a1.007,1.007,0,0,1,.642.186.621.621,0,0,1,.234.517.7.7,0,0,1-.108.39.659.659,0,0,1-.3.248,1.2,1.2,0,0,1-.465.083h-.669V60.216Zm1.814,2.049a2.285,2.285,0,0,0-.565-.252,1.626,1.626,0,0,0,.647-.465,1.216,1.216,0,0,0,.265-.794,1.42,1.42,0,0,0-.152-.677,1.368,1.368,0,0,0-.421-.478,1.95,1.95,0,0,0-.643-.286,3.348,3.348,0,0,0-.833-.1h-2.031V65.3h2.152a3.622,3.622,0,0,0,1.19-.178,1.62,1.62,0,0,0,.8-.569,1.631,1.631,0,0,0,.286-.99,1.485,1.485,0,0,0-.188-.769,1.566,1.566,0,0,0-.508-.525" transform="translate(460.111 -21.171)" fill="#4a1b00"/><path d="M-378.574,63.087a1.836,1.836,0,0,1-.39.629,1.776,1.776,0,0,1-.6.413,1.912,1.912,0,0,1-.757.148,1.957,1.957,0,0,1-.772-.148,1.776,1.776,0,0,1-.6-.413,1.845,1.845,0,0,1-.39-.633,2.232,2.232,0,0,1-.14-.8,2.21,2.21,0,0,1,.14-.8,1.859,1.859,0,0,1,.39-.63,1.8,1.8,0,0,1,.6-.413,1.981,1.981,0,0,1,.772-.147,1.972,1.972,0,0,1,.778.147,1.8,1.8,0,0,1,.594.413,1.752,1.752,0,0,1,.382.634,2.376,2.376,0,0,1,.131.794,2.213,2.213,0,0,1-.14.8m.547-3.069a3.253,3.253,0,0,0-1.024-.659,3.319,3.319,0,0,0-1.276-.24,3.285,3.285,0,0,0-1.267.24,3.188,3.188,0,0,0-1.02.659,2.97,2.97,0,0,0-.682,1,3.243,3.243,0,0,0-.242,1.272,3.317,3.317,0,0,0,.238,1.276,3.065,3.065,0,0,0,.669,1.012,3.053,3.053,0,0,0,1.015.669,3.419,3.419,0,0,0,1.3.238,3.375,3.375,0,0,0,1.281-.238,3.118,3.118,0,0,0,1.02-.669,2.973,2.973,0,0,0,.667-1.016,3.372,3.372,0,0,0,.234-1.272,3.338,3.338,0,0,0-.234-1.272,2.83,2.83,0,0,0-.677-1" transform="translate(461.608 -21.203)" fill="#4a1b00"/><path d="M-373.962,63.229a1.387,1.387,0,0,1-.121.594.892.892,0,0,1-.365.4,1.158,1.158,0,0,1-.6.144,1.153,1.153,0,0,1-.6-.144.892.892,0,0,1-.365-.4,1.369,1.369,0,0,1-.121-.594V59.218h-1.241V63.3a2.373,2.373,0,0,0,.177.955,1.977,1.977,0,0,0,.486.686,2.069,2.069,0,0,0,.734.421,2.854,2.854,0,0,0,.92.144,2.915,2.915,0,0,0,.938-.144,2.176,2.176,0,0,0,.742-.421,1.869,1.869,0,0,0,.49-.686,2.42,2.42,0,0,0,.173-.955v-4.08h-1.249Z" transform="translate(463.655 -21.17)" fill="#4a1b00"/><path d="M-372.727,60.346h1.641v4.948h1.242V60.346h1.641V59.218h-4.523Z" transform="translate(465.198 -21.17)" fill="#4a1b00"/><rect width="1.267" height="6.077" transform="translate(98.566 38.048)" fill="#4a1b00"/><path d="M-361.758,64.215a2.059,2.059,0,0,1-.769.139,2.05,2.05,0,0,1-.777-.147,1.88,1.88,0,0,1-.63-.422,1.954,1.954,0,0,1-.421-.655,2.256,2.256,0,0,1-.152-.842,2.163,2.163,0,0,1,.144-.794,1.888,1.888,0,0,1,.4-.634,1.822,1.822,0,0,1,.607-.413,1.964,1.964,0,0,1,.759-.148,2.033,2.033,0,0,1,.825.161,1.814,1.814,0,0,1,.626.452,2.037,2.037,0,0,1,.4.677,2.4,2.4,0,0,1,.14.821,2.182,2.182,0,0,1-.14.79,1.709,1.709,0,0,1-.121.242l-.763-.719h-1.355l1.448,1.381a2.006,2.006,0,0,1-.22.112m2.127-.655a3.455,3.455,0,0,0,.23-1.272,3.322,3.322,0,0,0-.234-1.267,2.992,2.992,0,0,0-.665-1,3.078,3.078,0,0,0-1.016-.665,3.345,3.345,0,0,0-1.271-.238,3.379,3.379,0,0,0-1.276.238,3.214,3.214,0,0,0-1.03.661,3.038,3.038,0,0,0-.686,1,3.2,3.2,0,0,0-.246,1.272,3.313,3.313,0,0,0,.238,1.276,2.985,2.985,0,0,0,.677,1.011,3.1,3.1,0,0,0,1.03.669,3.4,3.4,0,0,0,1.293.238,3.336,3.336,0,0,0,1.284-.238,3.071,3.071,0,0,0,.61-.334l.51.488h1.389l-1.22-1.15a2.945,2.945,0,0,0,.382-.687" transform="translate(467.49 -21.203)" fill="#4a1b00"/><path d="M-356.052,63.229a1.387,1.387,0,0,1-.121.594.892.892,0,0,1-.365.4,1.158,1.158,0,0,1-.6.144,1.153,1.153,0,0,1-.6-.144.892.892,0,0,1-.365-.4,1.367,1.367,0,0,1-.121-.594V59.218h-1.241V63.3a2.372,2.372,0,0,0,.177.955,1.973,1.973,0,0,0,.486.686,2.068,2.068,0,0,0,.734.421,2.855,2.855,0,0,0,.92.144,2.915,2.915,0,0,0,.938-.144,2.177,2.177,0,0,0,.742-.421,1.872,1.872,0,0,0,.49-.686,2.423,2.423,0,0,0,.173-.955v-4.08h-1.249Z" transform="translate(469.602 -21.17)" fill="#4a1b00"/><path d="M-350.489,60.277V59.218h-3.872v6.077h3.872V64.235h-2.657V62.586h2.484V61.545h-2.484V60.277Z" transform="translate(471.296 -21.171)" fill="#4a1b00"/></g><g transform="translate(888 70)"><path d="M-375.685-39.738a30.443,30.443,0,0,1,2.971,2.606,29.729,29.729,0,0,1,8.765,21.161A29.871,29.871,0,0,1-366.3-4.319c1.008.027,2.013.1,3,.211l.47.054a33.168,33.168,0,0,0,2.2-11.917,33.25,33.25,0,0,0-18.242-29.677,10.352,10.352,0,0,1,3.181,5.91" transform="translate(427.125 49.221)" fill="#de1669"/><path d="M-424.5-4.108c.986-.113,1.99-.184,3-.211a29.872,29.872,0,0,1-2.347-11.652,29.73,29.73,0,0,1,8.766-21.161,30.428,30.428,0,0,1,2.971-2.606,10.353,10.353,0,0,1,3.181-5.91,33.25,33.25,0,0,0-18.242,29.677,33.171,33.171,0,0,0,2.2,11.917Z" transform="translate(427.171 49.221)" fill="#de1669"/><path d="M-377.419,9A29.757,29.757,0,0,1-392.225,13.9l.965-1.285a30.219,30.219,0,0,1,10.35-8.712A29.524,29.524,0,0,1-369.061.7,30,30,0,0,1-377.419,9m-33,0A30.015,30.015,0,0,1-418.775.7a29.524,29.524,0,0,1,11.849,3.208,30.211,30.211,0,0,1,10.35,8.712l.965,1.285A29.756,29.756,0,0,1-410.417,9m8.152-14.734-.392-.14c-4.554-1.714-6.731-4.863-6.472-9.366l1.153-14.086a30.708,30.708,0,0,0,3.871,5.113c6.674,7.241,17.632,13.322,23.754,14.993a10.53,10.53,0,0,1-4.81,3.339l-.411.148A15,15,0,0,0-392.76-.3a15.16,15.16,0,0,0-1.158,1.908A15.174,15.174,0,0,0-395.076-.3a15,15,0,0,0-7.189-5.441m9.909-31.85h-3.225V-33.2c-2.582-.9-4.156-2.689-4.156-4.392a2.6,2.6,0,0,1,1.391-2.325,8.7,8.7,0,0,1,4.428-1c3.606,0,5.739.921,5.818,1.662.051.467-.121.8-.743,1.108a8.125,8.125,0,0,1-3.513.554m-1.562-8.312c7,0,12.958,3.2,13.286,7.146a3.586,3.586,0,0,1-1.081,2.765c-1.9,2.058-5.89,3.389-10.173,3.389-.124,0-.248,0-.37,0v-1.657a11.179,11.179,0,0,0,4.888-.9,4.4,4.4,0,0,0,2.594-4.088c0-3.076-3.5-4.987-9.144-4.987a11.817,11.817,0,0,0-6.17,1.494,5.91,5.91,0,0,0-2.974,5.156,7.532,7.532,0,0,0,3.281,5.9,13.207,13.207,0,0,0,7.9,2.41c4.692,0,9.05-1.367,11.734-3.621l1.445,17.652a10.487,10.487,0,0,1-.224,2.956,39.274,39.274,0,0,1-9.057-3.841,55.108,55.108,0,0,1-13.67-10.342c-3.992-4.332-5.858-8.463-5.546-12.277h0c.324-3.943,6.284-7.152,13.287-7.152m26.6,43.225A33.168,33.168,0,0,0-392.255,8.585a11.755,11.755,0,0,1,7.674-11.144l.119-.042c6.211-2.169,9.433-6.735,9.073-12.856l-1.928-23.56c-.237-2.9-2.168-5.549-5.436-7.454a22.487,22.487,0,0,0-11.165-2.753,22.481,22.481,0,0,0-11.164,2.753c-3.269,1.905-5.2,4.553-5.437,7.454l-1.925,23.522,0,.038c-.361,6.121,2.861,10.687,9.072,12.856l.115.04a11.755,11.755,0,0,1,7.678,11.146A33.168,33.168,0,0,0-420.519-2.674a33.391,33.391,0,0,0-3.788.214,33.256,33.256,0,0,0,30.389,19.736A33.254,33.254,0,0,0-363.53-2.46a33.39,33.39,0,0,0-3.788-.214" transform="translate(427.168 49.224)" fill="#4a1b00"/></g></g></svg>