<svg width="0" height="0" class="hidden">
  <symbol xmlns="http://www.w3.org/2000/svg" viewBox="0 0 10.263 5.931" id="ic_arrow">
    <path d="M8,4,4,0,0,4" transform="translate(1.131 0.8)" fill="none" stroke="currentColor" stroke-linecap="round" stroke-linejoin="round" stroke-width="1.6"></path>
  </symbol>
  <symbol xmlns="http://www.w3.org/2000/svg" viewBox="0 0 18.2 20" id="ic_cart">
    <g transform="translate(-818.5 -272)">
      <rect width="16.2" height="12" transform="translate(819.5 279)" fill="none" stroke="currentColor" stroke-miterlimit="10" stroke-width="2"></rect>
      <path d="M824.5,279v-2a4,4,0,0,1,8,0v2" transform="translate(-0.9)" fill="none" stroke="currentColor" stroke-miterlimit="10" stroke-width="2"></path>
    </g>
  </symbol>
  <symbol xmlns="http://www.w3.org/2000/svg" viewBox="0 0 14.053 9.125" id="ic_check">
    <path d="M181.636,2738.909l3.962,3.661,7.265-6.712" transform="translate(-180.223 -2734.445)" fill="none" stroke="currentColor" stroke-linecap="round" stroke-linejoin="round" stroke-width="2"></path>
  </symbol>
  <symbol xmlns="http://www.w3.org/2000/svg" viewBox="0 0 15.429 18" id="ic_delete">
    <g transform="translate(-513.5 -152.404)">
      <path d="M518.092,171.471a2.5,2.5,0,0,1-2.513-2.423c-.268-2.44-.717-8.209-.725-8.267a.677.677,0,0,1,.164-.478.607.607,0,0,1,.448-.2h11.889a.62.62,0,0,1,.448.2.637.637,0,0,1,.155.478c0,.058-.457,5.836-.717,8.267a2.5,2.5,0,0,1-2.571,2.423c-1.107.022-2.192.031-3.262.031C520.277,171.5,519.168,171.5,518.092,171.471Z" transform="translate(-0.193 -1.1)" fill="currentColor"></path>
      <path d="M514.112,156.768a.626.626,0,0,1-.612-.629v-.326a.62.62,0,0,1,.612-.629h2.5a1.1,1.1,0,0,0,1.064-.87l.13-.585a1.7,1.7,0,0,1,1.639-1.325h3.539a1.7,1.7,0,0,1,1.629,1.286l.14.626a1.1,1.1,0,0,0,1.064.871h2.5a.62.62,0,0,1,.614.626h0v.326a.626.626,0,0,1-.611.629Z" fill="currentColor"></path>
    </g>
  </symbol>
  <symbol xmlns="http://www.w3.org/2000/svg" viewBox="0 0 12.166 21.472" id="ic_facebook">
    <g transform="translate(0 0)">
      <path d="M498,390.809h-2.773a2.2,2.2,0,0,0-1.535.418,2.031,2.031,0,0,0-.434,1.491v1.64h4.056v2.953h-4.056V409.06h-4.443V397.311h-2.564v-2.8l2.564-.149v-2.237q0-4.532,4.831-4.533a28.632,28.632,0,0,1,4.771.3Z" transform="translate(-486.251 -387.588)" fill="currentColor"></path>
    </g>
  </symbol>
  <symbol xmlns="http://www.w3.org/2000/svg" viewBox="0 0 22.777 20.28" id="ic_favorite">
    <path d="M213.225,465.706s-8.178-6.454-9.6-9.345a6.072,6.072,0,0,1,.477-6.61h0a5.039,5.039,0,0,1,7.267-.886l1.856,1.538,1.856-1.538a5.039,5.039,0,0,1,7.267.886h0a6.073,6.073,0,0,1,.477,6.61C221.4,459.251,213.225,465.706,213.225,465.706Z" transform="translate(-201.837 -446.7)" fill="none" stroke="currentColor" stroke-miterlimit="10" stroke-width="2"></path>
  </symbol>
  <symbol xmlns="http://www.w3.org/2000/svg" viewBox="0 0 24 24" id="ic_favorite2">
    <path id="Vector" d="M16.44 3.10001C14.63 3.10001 13.01 3.98001 12 5.33001C10.99 3.98001 9.37 3.10001 7.56 3.10001C4.49 3.10001 2 5.60001 2 8.69001C2 9.88001 2.19 10.98 2.52 12C5.13296 16.3574 9.81549 19.4634 11.38 20.81C11.72 20.93 12.28 20.93 12.62 20.81C14.4427 19.2885 19.2274 16.1967 21.48 12C21.81 10.98 22 9.88001 22 8.69001C22 5.60001 19.51 3.10001 16.44 3.10001Z" fill="currentColor"></path>
  </symbol>
  <symbol xmlns="http://www.w3.org/2000/svg" viewBox="0 0 24.38 24.38" id="ic_instagram">
    <g transform="translate(0.1 0.1)">
      <path d="M212.08,411.768c-4.825,0-7.319-.083-8.8-1.7-1.527-1.669-1.527-4.583-1.527-10.392,0-11.637.452-12.089,12.089-12.089s12.092.452,12.092,12.089-.452,12.09-12.092,12.09H212.08Zm1.762-22.236c-5.115,0-7.935,0-9.039,1.1s-1.1,3.924-1.1,9.039c0,5.138,0,7.968,1.016,9.079.983,1.073,3.553,1.064,8.186,1.068h.942c5.118,0,7.937,0,9.042-1.1s1.1-3.924,1.1-9.041,0-7.935-1.1-9.039S218.96,389.533,213.842,389.533Z" transform="translate(-201.753 -387.588)" fill="currentColor" stroke="currentColor" stroke-width="0.2"></path>
      <path d="M211.955,403.657a5.866,5.866,0,1,1,5.867-5.867A5.873,5.873,0,0,1,211.955,403.657Zm0-9.983a4.116,4.116,0,1,0,4.117,4.116A4.12,4.12,0,0,0,211.955,393.674Z" transform="translate(-199.866 -385.701)" fill="currentColor" stroke="currentColor" stroke-width="0.2"></path>
      <circle cx="1.115" cy="1.115" r="1.115" transform="translate(17.956 4.292)" fill="currentColor"></circle>
    </g>
  </symbol>
  <symbol xmlns="http://www.w3.org/2000/svg" viewBox="0 0 17 20" id="ic_location">
    <g transform="translate(-215.5 -355.904)">
      <g transform="translate(215.5 355.904)">
        <g transform="translate(-215.5 -355.904)" fill="none">
          <path d="M224,375.9a1.356,1.356,0,0,1-.734-.247,21.506,21.506,0,0,1-5.54-5.141,10.381,10.381,0,0,1-2.226-6.294,8.166,8.166,0,0,1,2.5-5.884,8.528,8.528,0,0,1,5.993-2.434,8.423,8.423,0,0,1,8.507,8.318,10.39,10.39,0,0,1-2.23,6.294,21.9,21.9,0,0,1-5.541,5.141A1.319,1.319,0,0,1,224,375.9Zm-.009-15.407A3.994,3.994,0,0,0,220,364.491h0a3.87,3.87,0,0,0,1.171,2.787,3.987,3.987,0,1,0,2.82-6.781Z" stroke="none"></path>
          <path d="M 223.9968109130859 374.2236938476563 C 225.9212646484375 372.9554443359375 227.6024475097656 371.383056640625 228.9953460693359 369.5482788085938 L 229.0135345458984 369.5247802734375 C 230.1994323730469 368.0214233398438 230.8687744140625 366.1388549804688 230.8994903564453 364.2214050292969 C 230.8717346191406 362.4217834472656 230.1517486572266 360.7353210449219 228.8707427978516 359.4707336425781 C 227.5689697265625 358.1856384277344 225.8385772705078 357.4855651855469 224.0088653564453 357.5039367675781 L 223.9981384277344 357.5040588378906 L 223.9662628173828 357.5039672851563 C 222.1433715820313 357.5039672851563 220.4219512939453 358.2062377929688 219.119140625 359.4814147949219 L 219.1102142333984 359.4900817871094 C 217.8341522216797 360.7198181152344 217.1017913818359 362.4401245117188 217.1000213623047 364.2115173339844 C 217.1265716552734 366.1311950683594 217.7949981689453 368.0179443359375 218.9827728271484 369.5255432128906 L 219.0033111572266 369.5521850585938 C 220.3921203613281 371.3933715820313 222.071533203125 372.9643859863281 223.9968109130859 374.2236938476563 M 223.9998321533203 375.9035949707031 C 223.7368316650391 375.8946228027344 223.4818420410156 375.80859375 223.2658538818359 375.6566467285156 C 221.1298980712891 374.2836608886719 219.2549285888672 372.5426940917969 217.7259674072266 370.5157165527344 C 216.3110046386719 368.7197570800781 215.5290222167969 366.5078125 215.5000152587891 364.2218322753906 C 215.4989929199219 362.0019226074219 216.4019775390625 359.8779296875 217.9999694824219 358.3379821777344 C 219.6009216308594 356.77099609375 221.7532196044922 355.8959350585938 223.9928131103516 355.9040222167969 C 224.0217132568359 355.9037170410156 224.0509490966797 355.9035949707031 224.0797882080078 355.9035949707031 C 228.6843109130859 355.9035949707031 232.4420013427734 359.6068420410156 232.4996490478516 364.2218322753906 C 232.4686431884766 366.5078125 231.6856689453125 368.7207641601563 230.2697143554688 370.5157165527344 C 228.7347259521484 372.5376892089844 226.8597717285156 374.2766418457031 224.7288208007813 375.6566467285156 C 224.5158233642578 375.8096008300781 224.2618103027344 375.8955993652344 223.9998321533203 375.9035949707031 Z M 223.9880828857422 360.4969177246094 C 221.7834167480469 360.4984436035156 219.9969177246094 362.2858276367188 219.9969177246094 364.4908447265625 C 219.992919921875 365.5398254394531 220.4159088134766 366.5457763671875 221.1678924560547 367.2778015136719 C 222.7618560791016 368.8277587890625 225.3118286132813 368.7917785644531 226.8617553710938 367.1977844238281 C 227.5677490234375 366.4708251953125 227.9747467041016 365.5038146972656 227.9997406005859 364.4908447265625 C 227.9807586669922 362.2860412597656 226.1928405761719 360.5061645507813 223.9880828857422 360.4969177246094 C 223.9890289306641 360.4969177246094 223.9898834228516 360.4969177246094 223.9908294677734 360.4969177246094 L 223.9878387451172 360.4969177246094 C 223.9879760742188 360.4969177246094 223.9879455566406 360.4969177246094 223.9880828857422 360.4969177246094 Z" stroke="none" fill="currentColor"></path>
        </g>
      </g>
    </g>
  </symbol>
  <symbol xmlns="http://www.w3.org/2000/svg" viewBox="0 0 14.986 25" id="ic_odnokl">
    <g transform="translate(-96.237)">
      <path d="M124.067,12.988a6.494,6.494,0,1,0-6.494-6.494A6.494,6.494,0,0,0,124.067,12.988Zm0-9.991a3.5,3.5,0,1,1-3.5,3.5A3.5,3.5,0,0,1,124.067,3Z" transform="translate(-20.337)" fill="currentColor"></path>
      <path d="M110.091,262.612a2.516,2.516,0,0,0,1.132-2.1,1.812,1.812,0,0,0-1.016-1.653,1.9,1.9,0,0,0-2,.188,7.6,7.6,0,0,1-8.957,0,1.908,1.908,0,0,0-2-.188,1.814,1.814,0,0,0-1.017,1.652,2.519,2.519,0,0,0,1.132,2.1,11.534,11.534,0,0,0,2.927,1.4q.264.082.545.152l-3.019,2.952a2,2,0,0,0,2.783,2.868l.049-.049,3.077-3.185,3.083,3.191a2,2,0,0,0,2.87-2.78l-.049-.049-3.014-2.949q.281-.072.546-.153A11.49,11.49,0,0,0,110.091,262.612Z" transform="translate(0 -245.547)" fill="currentColor"></path>
    </g>
  </symbol>
  <symbol xmlns="http://www.w3.org/2000/svg" viewBox="0 0 17.998 18" id="ic_phone">
    <g transform="translate(-838 -403.904)">
      <g transform="translate(838 403.904)">
        <path d="M852.549,415.045a2.052,2.052,0,0,0-1.506.4c-.434.253-1.26.921-1.731.75a10.738,10.738,0,0,1-5.681-5.543c-.174-.482.492-1.312.742-1.751a2.1,2.1,0,0,0,.392-1.516,12.326,12.326,0,0,0-2.1-2.922,1.722,1.722,0,0,0-1.051-.553c-1.351-.057-2.859,1.746-3.125,2.177-.662.92-.659,2.143.012,3.628,1.62,3.985,7.727,10,11.727,11.676a4.826,4.826,0,0,0,2.019.518,2.628,2.628,0,0,0,1.576-.494c.343-.2,2.219-1.781,2.17-3.169a1.747,1.747,0,0,0-.547-1.049,12.423,12.423,0,0,0-2.9-2.146" transform="translate(-838 -403.904)" fill="currentColor"></path>
      </g>
    </g>
  </symbol>
  <symbol xmlns="http://www.w3.org/2000/svg" viewBox="0 0 19.499 24" id="ic_pinterest">
    <path d="M58.076,0C51.5,0,48,4.216,48,8.812c0,2.131,1.191,4.79,3.1,5.633.544.245.472-.054.94-1.844a.425.425,0,0,0-.1-.417C49.21,9.031,51.4,2.549,57.687,2.549c9.093,0,7.394,12.582,1.582,12.582A2.146,2.146,0,0,1,57.008,12.5c.428-1.733,1.266-3.6,1.266-4.845,0-3.148-4.69-2.681-4.69,1.49A5.046,5.046,0,0,0,54.04,11.3s-1.509,6.1-1.789,7.235a16.177,16.177,0,0,0,.111,5.318.158.158,0,0,0,.288.073,18.858,18.858,0,0,0,2.484-4.678c.186-.685.949-3.465.949-3.465a4.146,4.146,0,0,0,3.5,1.668c4.6,0,7.918-4.04,7.918-9.053C67.483,3.6,63.37,0,58.076,0Z" transform="translate(-48)" fill="currentColor"></path>
  </symbol>
  <symbol xmlns="http://www.w3.org/2000/svg" viewBox="0 0 16.962 17.707" id="ic_search">
    <g transform="translate(1 1)">
      <circle cx="6.319" cy="6.319" r="6.319" fill="none" stroke="currentColor" stroke-miterlimit="10" stroke-width="2"></circle>
      <line x2="5.213" y2="5.213" transform="translate(10.042 10.787)" fill="none" stroke="currentColor" stroke-miterlimit="10" stroke-width="2"></line>
    </g>
  </symbol>
  <symbol xmlns="http://www.w3.org/2000/svg" viewBox="0 0 20.188 18" id="ic_telegram">
    <g transform="translate(0 0)">
      <path d="M502.524-264.681a.894.894,0,0,0-.9-.155l-18.378,6.891a.9.9,0,0,0-.588.847.9.9,0,0,0,.588.846l5.269,1.976a.182.182,0,0,1,.11.12l1.345,4.7a.9.9,0,0,0,.705.641.9.9,0,0,0,.887-.345l1.576-2.1a.181.181,0,0,1,.126-.071.185.185,0,0,1,.138.042l4.868,4.173a.9.9,0,0,0,.586.22.889.889,0,0,0,.3-.053.894.894,0,0,0,.589-.683l3.084-16.19A.893.893,0,0,0,502.524-264.681Zm-11.86,15.032-1.345-4.706a.563.563,0,0,0-.032-.09.713.713,0,0,1,.3-.855l12.12-8.642-10.125,10.125-.819,4.281A.166.166,0,0,1,490.665-249.649Z" transform="translate(-482.659 264.895)" fill="currentColor"></path>
    </g>
  </symbol>
  <symbol xmlns="http://www.w3.org/2000/svg" viewBox="0 0 21.398 24.18" id="ic_tiktok">
    <g transform="translate(0 0)">
      <path d="M1059.688,396.787a9.491,9.491,0,0,0,5.539,1.772v-3.973a5.627,5.627,0,0,1-1.163-.121v3.128a9.505,9.505,0,0,1-5.54-1.772v8.108a7.35,7.35,0,0,1-11.437,6.1,7.348,7.348,0,0,0,12.6-5.135v-8.108Zm1.435-4.008a5.538,5.538,0,0,1-1.435-3.242v-.51h-1.1a5.561,5.561,0,0,0,2.538,3.752Zm-11.469,14.138a3.361,3.361,0,0,1,3.694-5.235V397.62a7.342,7.342,0,0,0-1.162-.067v3.161a3.414,3.414,0,0,0-1.019-.156,3.359,3.359,0,0,0-1.512,6.36Z" transform="translate(-1043.83 -388.059)" fill="currentColor" opacity="0.498"></path>
      <path d="M1059.117,395.82a9.505,9.505,0,0,0,5.539,1.772v-3.128a8.768,8.768,0,0,1-5.478-5.438h-2.9v15.868a4.746,4.746,0,1,1-3.5-4.181v-3.161a6.878,6.878,0,1,0,6.339,6.375Z" transform="translate(-1044.423 -388.059)" fill="currentColor"></path>
      <path d="M1064.986,394.739v-.845a5.546,5.546,0,0,1-2.94-.84A5.558,5.558,0,0,0,1064.986,394.739Zm-5.478-5.438c-.026-.152-.047-.3-.061-.456v-.512h-4V404.2a3.362,3.362,0,0,1-4.873,2.989,3.362,3.362,0,0,0,6.036-2.023V389.3Zm-6.4,8.526v-.9a7.344,7.344,0,0,0-5.1,13.376,7.343,7.343,0,0,1,5.1-12.477Z" transform="translate(-1044.752 -388.333)" fill="currentColor"></path>
    </g>
  </symbol>
  <symbol xmlns="http://www.w3.org/2000/svg" viewBox="0 0 19.001 19" id="ic_user">
    <path d="M9.5,9.47A4.235,4.235,0,1,0,5.25,5.235,4.243,4.243,0,0,0,9.5,9.47Z" fill="none" stroke="currentColor" stroke-miterlimit="10" stroke-width="2"></path>
    <path d="M1,19V15.824a3.182,3.182,0,0,1,3.188-3.176H14.813A3.182,3.182,0,0,1,18,15.824V19" fill="none" stroke="currentColor" stroke-miterlimit="10" stroke-width="2"></path>
  </symbol>
  <symbol xmlns="http://www.w3.org/2000/svg" viewBox="0 0 20.5 20" id="ic_video_play">
    <g transform="translate(-352.75 -629)">
      <g transform="translate(373.25 629) rotate(90)" fill="none">
        <path d="M10,0,20,16H0Z" stroke="none"></path>
        <path d="M 10 3.018879890441895 L 2.886800765991211 14.39999961853027 L 17.11319923400879 14.39999961853027 L 10 3.018879890441895 M 10 0 L 20 16 L 0 16 L 10 0 Z" stroke="none" fill="currentColor"></path>
      </g>
      <line x1="10" transform="translate(352.75 639.5)" fill="none" stroke="currentColor" stroke-width="1" opacity="0.49"></line>
    </g>
  </symbol>
  <symbol xmlns="http://www.w3.org/2000/svg" viewBox="0 0 23.857 13.61" id="ic_vkontakte">
    <path d="M29.612,52.409h1.426a1.2,1.2,0,0,0,.651-.284,1.044,1.044,0,0,0,.2-.626s-.028-1.913.86-2.2,2,1.849,3.191,2.667a2.258,2.258,0,0,0,1.586.483l3.186-.044s1.667-.1.876-1.413a10.647,10.647,0,0,0-2.369-2.741c-2-1.854-1.73-1.554.676-4.762,1.466-1.953,2.051-3.146,1.868-3.657-.175-.486-1.252-.358-1.252-.358L36.92,39.5a.814.814,0,0,0-.463.082,1,1,0,0,0-.317.385,20.771,20.771,0,0,1-1.325,2.8c-1.6,2.712-2.236,2.856-2.5,2.687-.607-.393-.456-1.577-.456-2.418,0-2.629.4-3.725-.776-4.008a6.125,6.125,0,0,0-1.674-.166,7.732,7.732,0,0,0-2.977.3c-.408.2-.723.645-.531.671a1.61,1.61,0,0,1,1.059.532,3.461,3.461,0,0,1,.355,1.623s.211,3.094-.493,3.479c-.484.264-1.147-.275-2.571-2.735a22.875,22.875,0,0,1-1.281-2.654,1.066,1.066,0,0,0-.3-.4,1.487,1.487,0,0,0-.551-.223l-3.409.022s-.512.014-.7.237c-.167.2-.013.607-.013.607s2.669,6.244,5.691,9.39a8.185,8.185,0,0,0,5.917,2.7Z" transform="translate(-17.94 -38.855)" fill="currentColor"></path>
  </symbol>
  <symbol fill="none" xmlns="http://www.w3.org/2000/svg" viewBox="0 0 43 43" id="ic_warning">
    <path d="M19.768 4.99999C20.5378 3.66666 22.4622 3.66666 23.232 5L36.6554 28.25C37.4252 29.5833 36.463 31.25 34.9234 31.25H8.0766C6.537 31.25 5.57475 29.5833 6.34455 28.25L19.768 4.99999Z" fill="white" stroke="currentColor" stroke-width="2"></path>
    <path d="M20.589 21.5912L20.133 12.6992H22.945L22.47 21.5912H20.589ZM21.539 26.1322C21.0957 26.1322 20.7283 25.9866 20.437 25.6952C20.1457 25.4039 20 25.0556 20 24.6502C20 24.2449 20.1457 23.9029 20.437 23.6242C20.7283 23.3329 21.0957 23.1872 21.539 23.1872C21.9823 23.1872 22.3433 23.3329 22.622 23.6242C22.9007 23.9029 23.04 24.2449 23.04 24.6502C23.04 25.0556 22.9007 25.4039 22.622 25.6952C22.3433 25.9866 21.9823 26.1322 21.539 26.1322Z" fill="black"></path>
  </symbol>
  <symbol xmlns="http://www.w3.org/2000/svg" viewBox="0 0 16.615 18" id="ic_whatsapp">
    <path d="M321.635-267.016a8.346,8.346,0,0,0-8.308,8.366,8.324,8.324,0,0,0,3.323,6.683l-.486,2.951,2.9-1.685a8.171,8.171,0,0,0,2.572.416,8.346,8.346,0,0,0,8.308-8.365,8.346,8.346,0,0,0-8.308-8.366Z" transform="translate(-313.327 267.016)" fill="currentColor"></path>
    <g transform="translate(4.26 4.437)">
      <path d="M325.613-255.425v-.687a.324.324,0,0,0-.313-.321,5.066,5.066,0,0,1-1.907-.46.322.322,0,0,0-.361.064l-.562.56a.319.319,0,0,1-.373.06,6.679,6.679,0,0,1-2.77-2.724.323.323,0,0,1,.059-.381l.595-.591a.326.326,0,0,0,.065-.361,5.463,5.463,0,0,1-.465-1.989.324.324,0,0,0-.32-.314h-1.419a.325.325,0,0,0-.324.325v.162a8.006,8.006,0,0,0,7.609,7.634h.162a.325.325,0,0,0,.324-.325Z" transform="translate(-317.518 262.571)" fill="#ffefe0"></path>
    </g>
  </symbol>
  <symbol xmlns="http://www.w3.org/2000/svg" viewBox="0 0 24 16.798" id="ic_youtube">
    <path d="M23.5,2.629A3.006,3.006,0,0,0,21.389.514C19.51,0,12,0,12,0S4.488,0,2.609.493A3.068,3.068,0,0,0,.494,2.629a33.957,33.957,0,0,0,0,11.544,3.007,3.007,0,0,0,2.115,2.115c1.9.509,9.39.509,9.39.509s7.511,0,9.39-.494A3.006,3.006,0,0,0,23.5,14.188,31.677,31.677,0,0,0,24,8.421,30.06,30.06,0,0,0,23.5,2.629ZM9.607,12V4.8l6.246,3.6Z" transform="translate(0 0.001)" fill="currentColor"></path>
  </symbol>
</svg>