<?xml version="1.0" encoding="utf-8"?><svg viewBox="0 0 24.38 25" xmlns="http://www.w3.org/2000/svg" xmlns:xlink="http://www.w3.org/1999/xlink"><style>:root>svg{display:none}:root>svg:target{display:block}</style><svg viewBox="0 0 10.263 5.931" id="ic_arrow" xmlns="http://www.w3.org/2000/svg"><path d="M9.131 4.8l-4-4-4 4" fill="none" stroke="currentColor" stroke-linecap="round" stroke-linejoin="round" stroke-width="1.6"/></svg><svg viewBox="0 0 18.2 20" id="ic_cart" xmlns="http://www.w3.org/2000/svg"><g fill="none" stroke="currentColor" stroke-miterlimit="10" stroke-width="2"><path d="M1 7h16.2v12H1zM5.1 7V5a4 4 0 0 1 8 0v2"/></g></svg><svg viewBox="0 0 14.053 9.125" id="ic_check" xmlns="http://www.w3.org/2000/svg"><path d="M1.413 4.464l3.962 3.661 7.265-6.712" fill="none" stroke="currentColor" stroke-linecap="round" stroke-linejoin="round" stroke-width="2"/></svg><svg viewBox="0 0 15.429 18" id="ic_delete" xmlns="http://www.w3.org/2000/svg"><g fill="currentColor"><path d="M4.399 17.967a2.5 2.5 0 0 1-2.513-2.423c-.268-2.44-.717-8.209-.725-8.267a.677.677 0 0 1 .164-.478.607.607 0 0 1 .448-.2h11.889a.62.62 0 0 1 .448.2.637.637 0 0 1 .155.478c0 .058-.457 5.836-.717 8.267a2.5 2.5 0 0 1-2.571 2.423c-1.107.022-2.192.031-3.262.031-1.131-.002-2.24-.002-3.316-.031zM.612 4.364A.626.626 0 0 1 0 3.735v-.326a.62.62 0 0 1 .612-.629h2.5a1.1 1.1 0 0 0 1.064-.87l.13-.585A1.7 1.7 0 0 1 5.945 0h3.539a1.7 1.7 0 0 1 1.629 1.286l.14.626a1.1 1.1 0 0 0 1.064.871h2.5a.62.62 0 0 1 .614.626v.326a.626.626 0 0 1-.611.629z"/></g></svg><svg viewBox="0 0 12.166 21.472" id="ic_facebook" xmlns="http://www.w3.org/2000/svg"><path d="M11.749 3.221H8.976a2.2 2.2 0 0 0-1.535.418 2.031 2.031 0 0 0-.434 1.491v1.64h4.056v2.953H7.007v11.749H2.564V9.723H0v-2.8l2.564-.149V4.537q0-4.532 4.831-4.533a28.632 28.632 0 0 1 4.771.3z" fill="currentColor"/></svg><svg viewBox="0 0 22.777 20.28" id="ic_favorite" xmlns="http://www.w3.org/2000/svg"><path d="M11.388 19.006s-8.178-6.454-9.6-9.345a6.072 6.072 0 0 1 .477-6.61h0a5.039 5.039 0 0 1 7.267-.886l1.856 1.538 1.856-1.538a5.039 5.039 0 0 1 7.267.886h0a6.073 6.073 0 0 1 .477 6.61c-1.425 2.89-9.6 9.345-9.6 9.345z" fill="none" stroke="currentColor" stroke-miterlimit="10" stroke-width="2"/></svg><svg viewBox="0 0 24.38 24.38" id="ic_instagram" xmlns="http://www.w3.org/2000/svg"><g transform="translate(.1 .1)" fill="currentColor"><path d="M10.327 24.18c-4.825 0-7.319-.083-8.8-1.7C0 20.811 0 17.897 0 12.088 0 .451.452-.001 12.089-.001s12.092.452 12.092 12.089-.452 12.09-12.092 12.09h-1.762zm1.762-22.236c-5.115 0-7.935 0-9.039 1.1s-1.1 3.924-1.1 9.039c0 5.138 0 7.968 1.016 9.079.983 1.073 3.553 1.064 8.186 1.068h.942c5.118 0 7.937 0 9.042-1.1s1.1-3.924 1.1-9.041 0-7.935-1.1-9.039-3.929-1.105-9.047-1.105z" stroke="currentColor" stroke-width=".2"/><path d="M12.089 17.956a5.866 5.866 0 1 1 5.867-5.867 5.873 5.873 0 0 1-5.867 5.867zm0-9.983a4.116 4.116 0 1 0 4.117 4.116 4.12 4.12 0 0 0-4.117-4.116z" stroke="currentColor" stroke-width=".2"/><circle cx="1.115" cy="1.115" r="1.115" transform="translate(17.956 4.292)"/></g></svg><svg viewBox="0 0 17 20" id="ic_location" xmlns="http://www.w3.org/2000/svg"><g fill="none"><path d="M8.5 19.996a1.356 1.356 0 0 1-.734-.247 21.506 21.506 0 0 1-5.54-5.141A10.381 10.381 0 0 1 0 8.314 8.166 8.166 0 0 1 2.5 2.43 8.528 8.528 0 0 1 8.493-.004 8.423 8.423 0 0 1 17 8.314a10.39 10.39 0 0 1-2.23 6.294 21.9 21.9 0 0 1-5.541 5.141 1.319 1.319 0 0 1-.729.247zM8.491 4.589A3.994 3.994 0 0 0 4.5 8.587a3.87 3.87 0 0 0 1.171 2.787 3.987 3.987 0 1 0 2.82-6.781z"/><path d="M8.497 18.32a20.246 20.246 0 0 0 4.998-4.676l.019-.023a8.836 8.836 0 0 0 1.885-5.304 6.783 6.783 0 0 0-2.028-4.75A6.783 6.783 0 0 0 8.509 1.6H8.466A6.891 6.891 0 0 0 3.62 3.577l-.009.01a6.599 6.599 0 0 0-2.01 4.72 8.83 8.83 0 0 0 1.883 5.315l.02.026a19.842 19.842 0 0 0 4.994 4.672M8.5 20a1.356 1.356 0 0 1-.734-.247 21.506 21.506 0 0 1-5.54-5.141A10.381 10.381 0 0 1 0 8.318a8.166 8.166 0 0 1 2.5-5.884A8.524 8.524 0 0 1 8.58 0 8.422 8.422 0 0 1 17 8.318a10.39 10.39 0 0 1-2.23 6.294 21.905 21.905 0 0 1-5.541 5.14 1.32 1.32 0 0 1-.73.248zM8.488 4.593a3.994 3.994 0 0 0-3.991 3.994 3.87 3.87 0 0 0 1.17 2.787A4.027 4.027 0 0 0 12.5 8.587a4.029 4.029 0 0 0-4.012-3.994h.003-.003z" fill="currentColor"/></g></svg><svg viewBox="0 0 14.986 25" id="ic_odnokl" xmlns="http://www.w3.org/2000/svg"><g fill="currentColor"><path d="M7.493 12.988A6.494 6.494 0 1 0 .999 6.494a6.494 6.494 0 0 0 6.494 6.494zm0-9.991a3.5 3.5 0 1 1-3.5 3.5A3.5 3.5 0 0 1 7.493 3zM13.854 17.065a2.516 2.516 0 0 0 1.132-2.1 1.812 1.812 0 0 0-1.016-1.653 1.9 1.9 0 0 0-2 .188 7.6 7.6 0 0 1-8.957 0 1.908 1.908 0 0 0-2-.188 1.814 1.814 0 0 0-1.017 1.652 2.519 2.519 0 0 0 1.132 2.1 11.534 11.534 0 0 0 2.927 1.4q.264.082.545.152l-3.019 2.952a2 2 0 0 0 2.783 2.868l.049-.049 3.077-3.185 3.083 3.191a2 2 0 0 0 2.87-2.78l-.049-.049-3.014-2.949q.281-.072.546-.153a11.49 11.49 0 0 0 2.928-1.397z"/></g></svg><svg viewBox="0 0 17.998 18" id="ic_phone" xmlns="http://www.w3.org/2000/svg"><path d="M14.549 11.141a2.052 2.052 0 0 0-1.506.4c-.434.253-1.26.921-1.731.75a10.738 10.738 0 0 1-5.681-5.543c-.174-.482.492-1.312.742-1.751a2.1 2.1 0 0 0 .392-1.516 12.326 12.326 0 0 0-2.1-2.922A1.722 1.722 0 0 0 3.614.006C2.263-.051.755 1.752.489 2.183c-.662.92-.659 2.143.012 3.628 1.62 3.985 7.727 10 11.727 11.676a4.826 4.826 0 0 0 2.019.518 2.628 2.628 0 0 0 1.576-.494c.343-.2 2.219-1.781 2.17-3.169a1.747 1.747 0 0 0-.547-1.049 12.423 12.423 0 0 0-2.9-2.146" fill="currentColor"/></svg><svg viewBox="0 0 19.499 24" id="ic_pinterest" xmlns="http://www.w3.org/2000/svg"><path d="M10.076 0C3.5 0 0 4.216 0 8.812c0 2.131 1.191 4.79 3.1 5.633.544.245.472-.054.94-1.844a.425.425 0 0 0-.1-.417C1.21 9.031 3.4 2.549 9.687 2.549c9.093 0 7.394 12.582 1.582 12.582A2.146 2.146 0 0 1 9.008 12.5c.428-1.733 1.266-3.6 1.266-4.845 0-3.148-4.69-2.681-4.69 1.49A5.046 5.046 0 0 0 6.04 11.3l-1.789 7.235a16.177 16.177 0 0 0 .111 5.318.158.158 0 0 0 .288.073 18.858 18.858 0 0 0 2.484-4.678c.186-.685.949-3.465.949-3.465a4.146 4.146 0 0 0 3.5 1.668c4.6 0 7.918-4.04 7.918-9.053C19.483 3.6 15.37 0 10.076 0z" fill="currentColor"/></svg><svg viewBox="0 0 16.962 17.707" id="ic_search" xmlns="http://www.w3.org/2000/svg"><g transform="translate(1 1)" fill="none" stroke="currentColor" stroke-miterlimit="10" stroke-width="2"><circle cx="6.319" cy="6.319" r="6.319"/><path d="M10.042 10.787L15.255 16"/></g></svg><svg viewBox="0 0 20.188 18" id="ic_telegram" xmlns="http://www.w3.org/2000/svg"><path d="M19.865.214a.894.894 0 0 0-.9-.155L.587 6.95a.9.9 0 0 0-.588.847.9.9 0 0 0 .588.846l5.269 1.976a.182.182 0 0 1 .11.12l1.345 4.7a.9.9 0 0 0 .705.641.9.9 0 0 0 .887-.345l1.576-2.1a.181.181 0 0 1 .126-.071.185.185 0 0 1 .138.042l4.868 4.173a.9.9 0 0 0 .586.22.889.889 0 0 0 .3-.053.894.894 0 0 0 .589-.683l3.084-16.19a.893.893 0 0 0-.305-.859zM8.005 15.246L6.66 10.54a.563.563 0 0 0-.032-.09.713.713 0 0 1 .3-.855L19.048.953 8.923 11.078l-.819 4.281a.166.166 0 0 1-.098-.113z" fill="currentColor"/></svg><svg viewBox="0 0 21.398 24.18" id="ic_tiktok" xmlns="http://www.w3.org/2000/svg"><g fill="currentColor"><path d="M15.858 8.728a9.491 9.491 0 0 0 5.539 1.772V6.527a5.627 5.627 0 0 1-1.163-.121v3.128a9.505 9.505 0 0 1-5.54-1.772v8.108a7.35 7.35 0 0 1-11.437 6.1 7.348 7.348 0 0 0 12.6-5.135V8.727zm1.435-4.008a5.538 5.538 0 0 1-1.435-3.242v-.51h-1.1a5.561 5.561 0 0 0 2.538 3.752zM5.824 18.858a3.361 3.361 0 0 1 3.694-5.235V9.561a7.342 7.342 0 0 0-1.162-.067v3.161a3.414 3.414 0 0 0-1.019-.156 3.359 3.359 0 0 0-1.512 6.36z" opacity=".498"/><path d="M14.694 7.761a9.505 9.505 0 0 0 5.539 1.772V6.405A8.768 8.768 0 0 1 14.755.967h-2.9v15.868a4.746 4.746 0 1 1-3.5-4.181V9.493a6.878 6.878 0 1 0 6.339 6.375z"/><path d="M20.234 6.406v-.845a5.546 5.546 0 0 1-2.94-.84 5.558 5.558 0 0 0 2.94 1.685zM14.756.968a5.68 5.68 0 0 1-.061-.456V0h-4v15.867a3.362 3.362 0 0 1-4.873 2.989 3.362 3.362 0 0 0 6.036-2.023V.967zm-6.4 8.526v-.9a7.344 7.344 0 0 0-5.1 13.376 7.343 7.343 0 0 1 5.1-12.477z"/></g></svg><svg viewBox="0 0 19.001 19" id="ic_user" xmlns="http://www.w3.org/2000/svg"><path d="M9.5 9.47a4.235 4.235 0 1 0-4.25-4.235A4.243 4.243 0 0 0 9.5 9.47zM1 19v-3.176a3.182 3.182 0 0 1 3.188-3.176h10.625A3.182 3.182 0 0 1 18 15.824V19" fill="none" stroke="currentColor" stroke-miterlimit="10" stroke-width="2"/></svg><svg viewBox="0 0 20.5 20" id="ic_video_play" xmlns="http://www.w3.org/2000/svg"><g fill="none"><path d="M20.5 10l-16 10V0z"/><path d="M17.481 10L6.1 2.887v14.226L17.481 10m3.019 0l-16 10V0l16 10z" fill="currentColor"/><path stroke="currentColor" opacity=".49" d="M10 10.5H0"/></g></svg><svg viewBox="0 0 23.857 13.61" id="ic_vkontakte" xmlns="http://www.w3.org/2000/svg"><path d="M11.672 13.554h1.426a1.2 1.2 0 0 0 .651-.284 1.044 1.044 0 0 0 .2-.626s-.028-1.913.86-2.2 2 1.849 3.191 2.667a2.258 2.258 0 0 0 1.586.483l3.186-.044s1.667-.1.876-1.413a10.647 10.647 0 0 0-2.369-2.741c-2-1.854-1.73-1.554.676-4.762 1.466-1.953 2.051-3.146 1.868-3.657-.175-.486-1.252-.358-1.252-.358L18.98.645a.814.814 0 0 0-.463.082 1 1 0 0 0-.317.385 20.771 20.771 0 0 1-1.325 2.8c-1.6 2.712-2.236 2.856-2.5 2.687-.607-.393-.456-1.577-.456-2.418 0-2.629.4-3.725-.776-4.008a6.125 6.125 0 0 0-1.674-.166 7.732 7.732 0 0 0-2.977.3c-.408.2-.723.645-.531.671a1.61 1.61 0 0 1 1.059.532 3.461 3.461 0 0 1 .355 1.623s.211 3.094-.493 3.479c-.484.264-1.147-.275-2.571-2.735A22.875 22.875 0 0 1 5.03 1.223a1.066 1.066 0 0 0-.3-.4A1.487 1.487 0 0 0 4.179.6L.77.622S.258.636.07.859c-.167.2-.013.607-.013.607s2.669 6.244 5.691 9.39a8.185 8.185 0 0 0 5.917 2.7z" fill="currentColor"/></svg><svg viewBox="0 0 16.615 18" id="ic_whatsapp" xmlns="http://www.w3.org/2000/svg"><path d="M8.308 0A8.346 8.346 0 0 0 0 8.366a8.324 8.324 0 0 0 3.323 6.683L2.837 18l2.9-1.685a8.171 8.171 0 0 0 2.572.416 8.346 8.346 0 0 0 8.308-8.365A8.346 8.346 0 0 0 8.309 0z" fill="currentColor"/><path d="M12.355 11.583v-.687a.324.324 0 0 0-.313-.321 5.066 5.066 0 0 1-1.907-.46.322.322 0 0 0-.361.064l-.562.56a.319.319 0 0 1-.373.06 6.679 6.679 0 0 1-2.77-2.724.323.323 0 0 1 .059-.381l.595-.591a.326.326 0 0 0 .065-.361 5.463 5.463 0 0 1-.465-1.989.324.324 0 0 0-.32-.314H4.584a.325.325 0 0 0-.324.325v.162a8.006 8.006 0 0 0 7.609 7.634h.162a.325.325 0 0 0 .324-.325z" fill="#ffefe0"/></svg><svg viewBox="0 0 24 16.798" id="ic_youtube" xmlns="http://www.w3.org/2000/svg"><path d="M23.5 2.63A3.006 3.006 0 0 0 21.389.515C19.51.001 12 .001 12 .001s-7.512 0-9.391.493A3.068 3.068 0 0 0 .494 2.63a33.957 33.957 0 0 0 0 11.544 3.007 3.007 0 0 0 2.115 2.115c1.9.509 9.39.509 9.39.509s7.511 0 9.39-.494a3.006 3.006 0 0 0 2.111-2.115 31.677 31.677 0 0 0 .5-5.767 30.06 30.06 0 0 0-.5-5.792zM9.607 12.001v-7.2l6.246 3.6z" fill="currentColor"/></svg></svg>